# MagicaVoxel @ Ephtracy

# group
o 

# material
mtllib map v1.0-2.mtl
usemtl palette

# normals
vn 0 0 -1
vn 0 0 1
vn -1 0 0
vn 1 0 0
vn 0 -1 0
vn 0 1 0

# texcoords
vt 0.939453 0.5
vt 0.970703 0.5
vt 0.974609 0.5
vt 0.978516 0.5
vt 0.986328 0.5

# verts
v -69.2 1.8 -6
v -56.6 1.8 -6
v -69.2 2.2 -6
v -56.6 2.2 -6
v -69.2 2.1 1.9
v -68.6 2.1 1.9
v -67.1 2.1 1.9
v -56.6 2.1 1.9
v -69.2 2.2 1.9
v -56.6 2.2 1.9
v -69.2 2.1 -1.8
v -68.6 2.1 -1.8
v -67.1 2.1 -1.8
v -56.6 2.1 -1.8
v -69.2 2.2 -1.8
v -56.6 2.2 -1.8
v -69.2 1.8 6.6
v -56.6 1.8 6.6
v -69.2 2.2 6.6
v -56.6 2.2 6.6
v -69.2 1.8 -6
v -69.2 2.2 -6
v -69.2 2 -1.8
v -69.2 2.1 -1.8
v -69.2 2.2 -1.8
v -69.2 2 1.9
v -69.2 2.1 1.9
v -69.2 2.2 1.9
v -69.2 1.8 6.6
v -69.2 2.2 6.6
v -56.6 1.8 -6
v -56.6 2.2 -6
v -56.6 2 -1.8
v -56.6 2.1 -1.8
v -56.6 2.2 -1.8
v -56.6 2 1.9
v -56.6 2.1 1.9
v -56.6 2.2 1.9
v -56.6 1.8 6.6
v -56.6 2.2 6.6
v -69.2 1.8 -6
v -69.2 1.8 6.6
v -56.6 1.8 -6
v -56.6 1.8 6.6
v -69.2 2.1 -1.8
v -69.2 2.1 1.9
v -68.6 2.1 -1.8
v -68.6 2.1 -1.6
v -68.6 2.1 -1.3
v -68.6 2.1 -1
v -68.6 2.1 -0.7
v -68.6 2.1 -0.4
v -68.6 2.1 -0.0999999
v -68.6 2.1 0.2
v -68.6 2.1 0.5
v -68.6 2.1 0.8
v -68.6 2.1 1.1
v -68.6 2.1 1.4
v -68.6 2.1 1.7
v -68.6 2.1 1.9
v -67.1 2.1 -1.8
v -67.1 2.1 -1.6
v -67.1 2.1 -1.3
v -67.1 2.1 -1
v -67.1 2.1 -0.7
v -67.1 2.1 -0.4
v -67.1 2.1 -0.0999999
v -67.1 2.1 0.2
v -67.1 2.1 0.5
v -67.1 2.1 0.8
v -67.1 2.1 1.1
v -67.1 2.1 1.4
v -67.1 2.1 1.7
v -67.1 2.1 1.9
v -66.3 2.1 -0.0999999
v -66.3 2.1 0.2
v -65.4 2.1 -0.0999999
v -65.4 2.1 0.2
v -64.8 2.1 -0.0999999
v -64.8 2.1 0.2
v -64.1 2.1 -0.0999999
v -64.1 2.1 0.2
v -63.4 2.1 -0.0999999
v -63.4 2.1 0.2
v -62.5 2.1 -0.0999999
v -62.5 2.1 0.2
v -61.9 2.1 -0.0999999
v -61.9 2.1 0.2
v -61 2.1 -0.0999999
v -61 2.1 0.2
v -60.2 2.1 -0.0999999
v -60.2 2.1 0.2
v -59.3 2.1 -0.0999999
v -59.3 2.1 0.2
v -58.5 2.1 -0.0999999
v -58.5 2.1 0.2
v -57.9 2.1 -0.0999999
v -57.9 2.1 0.2
v -57.4 2.1 -0.0999999
v -57.4 2.1 0.2
v -56.7 2.1 -0.0999999
v -56.7 2.1 0.2
v -56.6 2.1 -1.8
v -56.6 2.1 1.9
v -69.2 2.2 -6
v -69.2 2.2 -1.8
v -69.2 2.2 1.9
v -69.2 2.2 6.6
v -56.6 2.2 -6
v -56.6 2.2 -1.8
v -56.6 2.2 1.9
v -56.6 2.2 6.6

# faces
f 3/3/1 2/3/1 1/3/1
f 4/3/1 2/3/1 3/3/1
f 9/3/1 6/3/1 5/3/1
f 9/3/1 8/3/1 7/3/1
f 9/3/1 7/3/1 6/3/1
f 10/3/1 8/3/1 9/3/1
f 11/3/2 12/3/2 15/3/2
f 13/3/2 14/3/2 15/3/2
f 12/3/2 13/3/2 15/3/2
f 15/3/2 14/3/2 16/3/2
f 17/3/2 18/3/2 19/3/2
f 19/3/2 18/3/2 20/3/2
f 23/3/3 22/3/3 21/3/3
f 24/3/3 22/3/3 23/3/3
f 25/3/3 22/3/3 24/3/3
f 26/3/3 23/3/3 21/3/3
f 26/4/3 24/4/3 23/4/3
f 27/4/3 24/4/3 26/4/3
f 29/3/3 26/3/3 21/3/3
f 29/3/3 28/3/3 27/3/3
f 29/3/3 27/3/3 26/3/3
f 30/3/3 28/3/3 29/3/3
f 31/3/4 32/3/4 33/3/4
f 33/3/4 32/3/4 34/3/4
f 34/3/4 32/3/4 35/3/4
f 31/3/4 33/3/4 36/3/4
f 33/4/4 34/4/4 36/4/4
f 36/4/4 34/4/4 37/4/4
f 31/3/4 36/3/4 39/3/4
f 37/3/4 38/3/4 39/3/4
f 36/3/4 37/3/4 39/3/4
f 39/3/4 38/3/4 40/3/4
f 43/3/5 42/3/5 41/3/5
f 44/3/5 42/3/5 43/3/5
f 45/4/6 46/4/6 47/4/6
f 47/4/6 46/4/6 48/4/6
f 48/4/6 46/4/6 49/4/6
f 49/4/6 46/4/6 50/4/6
f 50/4/6 46/4/6 51/4/6
f 51/4/6 46/4/6 52/4/6
f 52/4/6 46/4/6 53/4/6
f 53/4/6 46/4/6 54/4/6
f 54/4/6 46/4/6 55/4/6
f 55/4/6 46/4/6 56/4/6
f 56/4/6 46/4/6 57/4/6
f 57/4/6 46/4/6 58/4/6
f 58/4/6 46/4/6 59/4/6
f 59/4/6 46/4/6 60/4/6
f 47/2/6 48/2/6 61/2/6
f 48/4/6 49/4/6 62/4/6
f 61/2/6 48/2/6 62/2/6
f 49/2/6 50/2/6 63/2/6
f 62/4/6 49/4/6 63/4/6
f 50/4/6 51/4/6 64/4/6
f 63/2/6 50/2/6 64/2/6
f 51/2/6 52/2/6 65/2/6
f 64/4/6 51/4/6 65/4/6
f 52/4/6 53/4/6 66/4/6
f 65/2/6 52/2/6 66/2/6
f 53/2/6 54/2/6 67/2/6
f 66/4/6 53/4/6 67/4/6
f 54/4/6 55/4/6 68/4/6
f 67/2/6 54/2/6 68/2/6
f 55/2/6 56/2/6 69/2/6
f 68/4/6 55/4/6 69/4/6
f 56/4/6 57/4/6 70/4/6
f 69/2/6 56/2/6 70/2/6
f 57/2/6 58/2/6 71/2/6
f 70/4/6 57/4/6 71/4/6
f 58/4/6 59/4/6 72/4/6
f 71/2/6 58/2/6 72/2/6
f 59/2/6 60/2/6 73/2/6
f 72/4/6 59/4/6 73/4/6
f 73/2/6 60/2/6 74/2/6
f 61/4/6 62/4/6 75/4/6
f 62/4/6 63/4/6 75/4/6
f 73/4/6 74/4/6 75/4/6
f 72/4/6 73/4/6 75/4/6
f 71/4/6 72/4/6 75/4/6
f 70/4/6 71/4/6 75/4/6
f 69/4/6 70/4/6 75/4/6
f 68/4/6 69/4/6 75/4/6
f 67/4/6 68/4/6 75/4/6
f 66/4/6 67/4/6 75/4/6
f 65/4/6 66/4/6 75/4/6
f 64/4/6 65/4/6 75/4/6
f 63/4/6 64/4/6 75/4/6
f 75/4/6 74/4/6 76/4/6
f 61/4/6 75/4/6 77/4/6
f 75/2/6 76/2/6 77/2/6
f 76/4/6 74/4/6 78/4/6
f 77/2/6 76/2/6 78/2/6
f 61/4/6 77/4/6 79/4/6
f 77/4/6 78/4/6 79/4/6
f 78/4/6 74/4/6 80/4/6
f 79/4/6 78/4/6 80/4/6
f 61/4/6 79/4/6 81/4/6
f 79/2/6 80/2/6 81/2/6
f 80/4/6 74/4/6 82/4/6
f 81/2/6 80/2/6 82/2/6
f 61/4/6 81/4/6 83/4/6
f 81/4/6 82/4/6 83/4/6
f 82/4/6 74/4/6 84/4/6
f 83/4/6 82/4/6 84/4/6
f 61/4/6 83/4/6 85/4/6
f 83/2/6 84/2/6 85/2/6
f 84/4/6 74/4/6 86/4/6
f 85/2/6 84/2/6 86/2/6
f 61/4/6 85/4/6 87/4/6
f 85/4/6 86/4/6 87/4/6
f 86/4/6 74/4/6 88/4/6
f 87/4/6 86/4/6 88/4/6
f 61/4/6 87/4/6 89/4/6
f 87/2/6 88/2/6 89/2/6
f 88/4/6 74/4/6 90/4/6
f 89/2/6 88/2/6 90/2/6
f 61/4/6 89/4/6 91/4/6
f 89/4/6 90/4/6 91/4/6
f 90/4/6 74/4/6 92/4/6
f 91/4/6 90/4/6 92/4/6
f 61/4/6 91/4/6 93/4/6
f 91/2/6 92/2/6 93/2/6
f 92/4/6 74/4/6 94/4/6
f 93/2/6 92/2/6 94/2/6
f 61/4/6 93/4/6 95/4/6
f 93/4/6 94/4/6 95/4/6
f 94/4/6 74/4/6 96/4/6
f 95/4/6 94/4/6 96/4/6
f 61/4/6 95/4/6 97/4/6
f 95/2/6 96/2/6 97/2/6
f 96/4/6 74/4/6 98/4/6
f 97/2/6 96/2/6 98/2/6
f 61/4/6 97/4/6 99/4/6
f 97/4/6 98/4/6 99/4/6
f 98/4/6 74/4/6 100/4/6
f 99/4/6 98/4/6 100/4/6
f 61/4/6 99/4/6 101/4/6
f 99/2/6 100/2/6 101/2/6
f 100/4/6 74/4/6 102/4/6
f 101/2/6 100/2/6 102/2/6
f 61/4/6 101/4/6 103/4/6
f 101/4/6 102/4/6 103/4/6
f 102/4/6 74/4/6 104/4/6
f 103/4/6 102/4/6 104/4/6
f 105/3/6 106/3/6 109/3/6
f 109/3/6 106/3/6 110/3/6
f 107/3/6 108/3/6 111/3/6
f 111/3/6 108/3/6 112/3/6
